# xmcd CD database file
#
# Track frame offsets:
#	150
#	18045
#	32760
#
# Disc length: 702 seconds
#
# Revision: 0
# Processed by: cddbd v1.5.1PL0 Copyright (c) Steve Scherf et al.
# Submitted via: CDex 1.51
#
DISCID=1502bc03
DTITLE=SORROW - RIVIERA
DYEAR=2004
DGENRE=Rock
TTITLE0=RIVIERA
TTITLE1=RED HALO - 赤い基督 -
TTITLE2=DARKNESS
EXTD=YEAR: 2004
EXTT0=
EXTT1=
EXTT2=
PLAYORDER=
